<?xml version="1.0" encoding="UTF-8"?>
<svg width="56px" height="56px" viewBox="0 0 56 56" version="1.1" xmlns="http://www.w3.org/2000/svg" xmlns:xlink="http://www.w3.org/1999/xlink">
    <!-- Generator: Sketch 49 (51002) - http://www.bohemiancoding.com/sketch -->
    <title>ce</title>
    <desc>Created with Sketch.</desc>
    <defs></defs>
    <g id="Page-1" stroke="none" stroke-width="1" fill="none" fill-rule="evenodd">
        <g id="logos/vectoriel/CE_LOGO-Copy">
            <g>
                <polygon id="Fill-1" fill="#FF0000" points="0 0 0.00101504441 55.9989849 55.998985 56 56 0.00101506281"></polygon>
                <polygon id="Fill-2" fill="#FFFFFF" points="31.1814431 36.8992248 44.2790698 36.9012018 42.6109184 39.501899 29.5193798 39.503876"></polygon>
                <polygon id="Fill-3" fill="#FFFFFF" points="21.6211537 48.1949496 44.7131783 48.1860465 43.0600107 50.7867407 19.9689922 50.7906977"></polygon>
                <polygon id="Fill-4" fill="#FFFFFF" points="37.6880609 23.6613033 39.3970399 22.5736434 43.4108527 29.1006108 37.9646011 32.5581395 36.8992248 30.8323993 40.6514186 28.4534582"></polygon>
                <polygon id="Fill-5" fill="#FFFFFF" points="4.27321566 28.6521524 22.1395349 28.6511628 20.4780707 31.255814 2.60465116 31.255814"></polygon>
                <path d="M36.0294363,28.6511628 C36.9911537,28.6469672 37.764299,27.8707903 37.7674419,26.9163025 C37.764299,25.9544725 36.9838203,25.1782956 36.0304839,25.1782956 C35.0740047,25.1772467 34.2966689,25.9565703 34.2945736,26.912107 C34.2966689,27.873937 35.0750523,28.6501139 36.0294363,28.6511628" id="Fill-6" fill="#FFFFFF"></path>
                <polygon id="Fill-8" fill="#FFFFFF" points="23.0773906 26.4806202 5.20930233 26.4776445 6.8771123 23.8769609 24.744186 23.875969"></polygon>
                <polygon id="Fill-10" fill="#FFFFFF" points="9.91966949 19.1007752 27.7829457 19.1007752 26.1184385 21.7054264 8.24806202 21.7004727"></polygon>
                <path d="M47.751938,1.73643411 C32.1754331,9.48532834 9.54836099,18.4375111 9.5503876,36.7047892 C9.5503876,43.5038255 13.4587001,48.4771478 17.3893052,50.3565891 L37.4993309,18.1536688 L35.9358033,15.6629528 L16.677966,46.4861969 C14.6999971,45.0264366 12.1626846,41.208758 12.1596447,36.1117616 C12.1647112,22.0341983 29.9644044,12.7434322 45.3271022,5.64940268 L47.751938,1.73643411 Z" id="Fill-12" fill="#FFFFFF"></path>
            </g>
        </g>
    </g>
</svg>