<?xml version="1.0" encoding="UTF-8"?>
<svg width="407px" height="348px" viewBox="0 0 407 348" version="1.1" xmlns="http://www.w3.org/2000/svg" xmlns:xlink="http://www.w3.org/1999/xlink">
    <title>graphisme-jo-ce 02</title>
    <defs>
        <polygon id="path-1" points="0 0.0537891228 94.8964364 0.0537891228 94.8964364 0.873096759 0 0.873096759"></polygon>
    </defs>
    <g id="graphisme-jo-ce-02" stroke="none" stroke-width="1" fill="none" fill-rule="evenodd">
        <g id="JO_CE_desktop]" transform="translate(3.000000, -95.000000)">
            <g id="graphisme" transform="translate(1.145972, 0.000000)" stroke-width="7.39872">
                <line x1="475.216303" y1="30.5218957" x2="190.340853" y2="494.21782" id="Path" stroke="#010202"></line>
                <line x1="466.967583" y1="0.0310900474" x2="173.696114" y2="483.465024" id="Path" stroke="#1D9DD9" stroke-dasharray="24.7463981628418,12.09768009185791"></line>
                <path d="M66.6100474,409.22654 C122.141611,385.216872 186.658389,410.846825 210.668057,466.378389 C234.677725,521.909953 209.047773,586.42673 153.516209,610.436398 C97.9846445,634.446066 33.4678673,608.816114 9.45819905,553.28455 C-14.5514692,497.605687 10.9311848,433.236209 66.6100474,409.22654 Z" id="Path" stroke="#3EAB37"></path>
                <path d="M9.31090047,553.28455 C-14.6987678,497.752986 10.9311848,433.236209 66.4627488,409.22654" id="Path" stroke="#FFD703"></path>
                <path d="M335.871848,534.57763 C252.058957,560.649479 162.796019,513.808531 136.724171,429.99564 C110.652322,346.182749 157.49327,256.91981 241.306161,230.847962 C325.119052,204.776114 414.381991,251.617062 440.453839,335.429953 C466.525687,419.242844 419.684739,508.505782 335.871848,534.57763 Z" id="Path" stroke="#E30613"></path>
            </g>
            <g id="logo-jo" transform="translate(0.000000, 244.826540)">
                <g id="Group">
                    <path d="M286.053839,139.933649 L70.4087204,139.933649 C31.6691943,139.933649 0.441895735,108.559052 0.441895735,69.9668246 C0.441895735,31.2272986 31.8164929,0 70.4087204,0 L286.053839,0 C324.793365,0 356.02118,31.3745972 356.02118,69.9668246 C356.167962,108.559052 324.793365,139.933649 286.053839,139.933649" id="Path" fill="#FFFFFF" fill-rule="nonzero"></path>
                    <g transform="translate(146.000000, 116.000000)" fill="#020203" fill-rule="nonzero">
                        <path d="M0.314694072,0.28877809 L1.48091328,0.28877809 C2.38797266,0.28877809 3.00995624,0.599769878 3.00995624,1.48091328 C3.00995624,2.3361407 2.38797266,2.75079642 1.50682926,2.75079642 L0.83301372,2.75079642 L0.83301372,4.35758733 L0.314694072,4.35758733 L0.314694072,0.28877809 Z M1.42908132,2.3361407 C2.12881284,2.3361407 2.49163659,2.07698088 2.49163659,1.50682926 C2.49163659,0.910761667 2.12881284,0.72934979 1.40316533,0.72934979 L0.83301372,0.72934979 L0.83301372,2.3361407 L1.42908132,2.3361407 Z" id="Shape"></path>
                        <path d="M4.66857912,0.28877809 L5.26464671,0.28877809 L6.63819378,4.35758733 L6.09395815,4.35758733 L5.39422662,2.07698088 C5.23873073,1.61049319 5.10915082,1.16992149 4.9795709,0.703433808 L4.95365492,0.703433808 C4.82407501,1.16992149 4.6944951,1.61049319 4.5389992,2.07698088 L3.8133517,4.35758733 L3.29503205,4.35758733 L4.66857912,0.28877809 Z M3.99476357,2.69896445 L5.86071431,2.69896445 L5.86071431,3.11362017 L3.99476357,3.11362017 L3.99476357,2.69896445 Z" id="Shape"></path>
                        <path d="M7.4934212,0.28877809 L8.76330433,0.28877809 C9.59261577,0.28877809 10.1886834,0.573853896 10.1886834,1.42908132 C10.1886834,2.23247677 9.59261577,2.64713249 8.76330433,2.64713249 L8.01174084,2.64713249 L8.01174084,4.35758733 L7.4934212,4.35758733 L7.4934212,0.28877809 Z M8.68555639,2.23247677 C9.30753996,2.23247677 9.67036372,1.97331695 9.67036372,1.4549973 C9.67036372,0.910761667 9.33345595,0.72934979 8.68555639,0.72934979 L8.01174084,0.72934979 L8.01174084,2.23247677 L8.68555639,2.23247677 L8.68555639,2.23247677 Z M8.6596404,2.49163659 L9.07429612,2.23247677 L10.3182633,4.35758733 L9.72219568,4.35758733 L8.6596404,2.49163659 Z" id="Shape"></path>
                        <polygon id="Path" points="12.0805501 0.72934979 10.8365829 0.72934979 10.8365829 0.28877809 13.8169209 0.28877809 13.8169209 0.72934979 12.5729537 0.72934979 12.5729537 4.35758733 12.0546341 4.35758733 12.0546341 0.72934979"></polygon>
                        <polygon id="Path" points="14.8794762 0.28877809 17.2378306 0.28877809 17.2378306 0.72934979 15.3977958 0.72934979 15.3977958 1.99923293 16.9527548 1.99923293 16.9527548 2.43980463 15.3977958 2.43980463 15.3977958 3.91701563 17.2896625 3.91701563 17.2896625 4.35758733 14.8794762 4.35758733 14.8794762 0.28877809"></polygon>
                        <path d="M18.4558818,0.28877809 L19.0001174,0.28877809 L20.4773284,2.85446035 L20.9179001,3.70968777 L20.9438161,3.70968777 C20.9179001,3.29503205 20.8660681,2.82854436 20.8660681,2.41388865 L20.8660681,0.314694072 L21.3584718,0.314694072 L21.3584718,4.38350331 L20.8142362,4.38350331 L19.3370252,1.81782105 L18.8964535,0.988509614 L18.8705375,0.988509614 C18.8964535,1.40316533 18.9482854,1.84373703 18.9482854,2.25839275 L18.9482854,4.38350331 L18.4558818,4.38350331 L18.4558818,0.28877809 Z" id="Path"></path>
                        <path d="M23.6131622,0.28877809 L24.2092298,0.28877809 L25.5827769,4.35758733 L25.0385413,4.35758733 L24.3388098,2.07698088 C24.1833139,1.61049319 24.053734,1.16992149 23.924154,0.703433808 L23.8982381,0.703433808 C23.7686581,1.16992149 23.6390782,1.61049319 23.4835823,2.07698088 L22.7579348,4.35758733 L22.2396152,4.35758733 L23.6131622,0.28877809 Z M22.9652627,2.69896445 L24.8312134,2.69896445 L24.8312134,3.11362017 L22.9652627,3.11362017 L22.9652627,2.69896445 Z" id="Shape"></path>
                        <polygon id="Path" points="26.4380043 0.28877809 26.956324 0.28877809 26.956324 4.35758733 26.4380043 4.35758733"></polygon>
                        <path d="M28.381703,0.28877809 L29.6515861,0.28877809 C30.4808976,0.28877809 31.0769652,0.573853896 31.0769652,1.42908132 C31.0769652,2.23247677 30.4808976,2.64713249 29.6515861,2.64713249 L28.9000227,2.64713249 L28.9000227,4.35758733 L28.381703,4.35758733 L28.381703,0.28877809 Z M29.5997542,2.23247677 C30.2217378,2.23247677 30.5845615,1.97331695 30.5845615,1.4549973 C30.5845615,0.910761667 30.2476537,0.72934979 29.5997542,0.72934979 L28.9259386,0.72934979 L28.9259386,2.23247677 L29.5997542,2.23247677 L29.5997542,2.23247677 Z M29.5738382,2.49163659 L29.9884939,2.23247677 L31.2324611,4.35758733 L30.6363935,4.35758733 L29.5738382,2.49163659 Z" id="Shape"></path>
                        <polygon id="Path" points="32.2431844 0.28877809 34.6015388 0.28877809 34.6015388 0.72934979 32.761504 0.72934979 32.761504 1.99923293 34.316463 1.99923293 34.316463 2.43980463 32.761504 2.43980463 32.761504 3.91701563 34.6533708 3.91701563 34.6533708 4.35758733 32.2431844 4.35758733 32.2431844 0.28877809"></polygon>
                        <path d="M37.3486329,0.28877809 L38.5148521,0.28877809 C39.4219115,0.28877809 40.0438951,0.599769878 40.0438951,1.48091328 C40.0438951,2.3361407 39.4219115,2.75079642 38.5407681,2.75079642 L37.8669526,2.75079642 L37.8669526,4.35758733 L37.3486329,4.35758733 L37.3486329,0.28877809 Z M38.4889361,2.3361407 C39.1886677,2.3361407 39.5514914,2.07698088 39.5514914,1.50682926 C39.5514914,0.910761667 39.1886677,0.72934979 38.4630202,0.72934979 L37.8928686,0.72934979 L37.8928686,2.3361407 L38.4889361,2.3361407 Z" id="Shape"></path>
                        <path d="M41.1841983,0.28877809 L42.4540815,0.28877809 C43.2833929,0.28877809 43.8794605,0.573853896 43.8794605,1.42908132 C43.8794605,2.23247677 43.2833929,2.64713249 42.4540815,2.64713249 L41.702518,2.64713249 L41.702518,4.35758733 L41.1841983,4.35758733 L41.1841983,0.28877809 Z M42.3763335,2.23247677 C42.9983171,2.23247677 43.3611408,1.97331695 43.3611408,1.4549973 C43.3611408,0.910761667 43.0242331,0.72934979 42.3763335,0.72934979 L41.702518,0.72934979 L41.702518,2.23247677 L42.3763335,2.23247677 L42.3763335,2.23247677 Z M42.3504175,2.49163659 L42.7650732,2.23247677 L44.0090404,4.35758733 L43.4129728,4.35758733 L42.3504175,2.49163659 Z" id="Shape"></path>
                        <polygon id="Path" points="45.0197637 0.28877809 47.3781181 0.28877809 47.3781181 0.72934979 45.5380834 0.72934979 45.5380834 1.99923293 47.0930423 1.99923293 47.0930423 2.43980463 45.5380834 2.43980463 45.5380834 3.91701563 47.4299501 3.91701563 47.4299501 4.35758733 45.0197637 4.35758733"></polygon>
                        <path d="M48.5961693,0.28877809 L49.2181529,0.28877809 L49.9956323,2.46572061 C50.0992963,2.75079642 50.1770442,3.03587222 50.2807081,3.32094803 L50.3066241,3.32094803 C50.4102881,3.03587222 50.488036,2.75079642 50.5916999,2.46572061 L51.3691794,0.28877809 L51.991163,0.28877809 L51.991163,4.35758733 L51.4987593,4.35758733 L51.4987593,2.10289686 C51.4987593,1.7400731 51.5505913,1.24766944 51.5765073,0.910761667 L51.5505913,0.910761667 L51.2395995,1.84373703 L50.46212,3.94293161 L50.1252122,3.94293161 L49.3477328,1.84373703 L49.036741,0.910761667 L49.010825,0.910761667 C49.036741,1.27358542 49.0885729,1.76598909 49.0885729,2.10289686 L49.0885729,4.35758733 L48.6220853,4.35758733 L48.6220853,0.28877809 L48.5961693,0.28877809 Z" id="Path"></path>
                        <polygon id="Path" points="53.416542 0.28877809 53.9348617 0.28877809 53.9348617 4.35758733 53.416542 4.35758733"></polygon>
                        <path d="M55.3602407,2.67304847 L55.3602407,0.28877809 L55.8785603,0.28877809 L55.8785603,2.69896445 C55.8785603,3.68377178 56.2932161,3.99476357 56.8374517,3.99476357 C57.3816873,3.99476357 57.796343,3.68377178 57.796343,2.69896445 L57.796343,0.28877809 L58.2887467,0.28877809 L58.2887467,2.67304847 C58.2887467,3.96884759 57.6667631,4.43533527 56.8374517,4.43533527 C56.0081402,4.43533527 55.3602407,3.99476357 55.3602407,2.67304847 Z" id="Path"></path>
                        <path d="M59.6882098,0.28877809 L60.3101933,0.28877809 L61.0876728,2.46572061 C61.1913367,2.75079642 61.2690847,3.03587222 61.3727486,3.32094803 L61.3986646,3.32094803 C61.5023285,3.03587222 61.5800765,2.75079642 61.6837404,2.46572061 L62.4612199,0.28877809 L63.0832034,0.28877809 L63.0832034,4.35758733 L62.5907998,4.35758733 L62.5907998,2.10289686 C62.5907998,1.7400731 62.6426317,1.24766944 62.6685477,0.910761667 L62.6426317,0.910761667 L62.33164,1.84373703 L61.5541605,3.94293161 L61.2172527,3.94293161 L60.4397732,1.84373703 L60.1287815,0.910761667 L60.1028655,0.910761667 C60.1287815,1.27358542 60.1806134,1.76598909 60.1806134,2.10289686 L60.1806134,4.35758733 L59.7141257,4.35758733 L59.7141257,0.28877809 L59.6882098,0.28877809 Z" id="Path"></path>
                    </g>
                    <g id="Group" transform="translate(25.000000, 32.173460)">
                        <g transform="translate(0.000000, 46.933425)" fill="#020303" fill-rule="nonzero">
                            <path d="M3.560436,1.16060175 C3.086424,0.931392 2.562516,0.90592425 2.038608,0.90592425 C1.589544,0.90592425 0.317196,0.90592425 0.317196,0.90592425 L0.317196,7.553007 L1.315116,7.553007 C1.315116,7.17099075 1.290168,6.7889745 1.439856,6.432426 C1.689336,5.8721355 2.288088,5.59199025 2.811996,5.33731275 C3.360852,5.0571675 3.984552,4.80249 4.358772,4.26766725 C4.683096,3.80924775 4.782888,3.172554 4.683096,2.6122635 C4.558356,1.950102 4.13424,1.440747 3.560436,1.16060175 Z M3.51054,3.70737675 C3.26106,4.06392525 2.861892,4.26766725 2.487672,4.47140925 C2.088504,4.67515125 1.664388,4.87889325 1.315116,5.209974 L1.315116,1.87369875 C1.63944,1.87369875 1.963764,1.87369875 2.26314,1.87369875 C2.787048,1.87369875 3.3858,2.051973 3.610332,2.6122635 C3.735072,2.94334425 3.710124,3.40176375 3.51054,3.70737675 Z" id="Shape"></path>
                            <path d="M10.99494,1.0841985 C10.12176,0.5748435 8.87436,0.72765 8.200764,1.51715025 C7.87644,1.8991665 7.701804,2.38305375 7.676856,2.89240875 C7.676856,3.0197475 7.676856,7.553007 7.676856,7.553007 L8.674776,7.553007 L8.674776,5.3627805 C9.273528,5.28637725 9.922176,5.33731275 10.421136,5.719329 C10.8702,6.05040975 11.069784,6.55976475 11.069784,7.12005525 C11.069784,7.27286175 11.069784,7.57847475 11.069784,7.57847475 L12.067704,7.57847475 L12.067704,3.1216185 C12.042756,2.28118275 11.718432,1.4916825 10.99494,1.0841985 Z M10.99494,5.0571675 C10.396188,4.4459415 9.49806,4.21673175 8.674776,4.36953825 C8.674776,4.01298975 8.674776,3.65644125 8.674776,3.274425 C8.674776,3.070683 8.674776,2.866941 8.724672,2.68866675 C8.824464,2.3066505 9.098892,2.0010375 9.448164,1.87369875 C9.822384,1.74636 10.2465,1.7972955 10.570824,2.051973 C10.895148,2.3066505 11.044836,2.663199 11.044836,3.070683 C11.044836,3.376296 11.044836,3.681909 11.044836,4.01298975 C11.044836,4.395006 11.044836,4.7515545 11.044836,5.13357075 C11.019888,5.08263525 10.99494,5.08263525 10.99494,5.0571675 Z" id="Shape"></path>
                            <path d="M18.903456,5.08263525 C18.778716,5.03169975 18.653976,4.98076425 18.529236,4.92982875 C18.85356,4.7515545 19.177884,4.52234475 19.402416,4.21673175 C19.602,3.9365865 19.72674,3.60550575 19.776636,3.274425 C19.85148,2.53586025 19.626948,1.848231 19.028196,1.41527925 C18.254808,0.829521 17.256888,0.90592425 16.333812,0.90592425 C16.009488,0.90592425 15.385788,0.90592425 15.385788,0.90592425 L15.385788,7.553007 L16.383708,7.553007 C16.383708,7.349265 16.383708,7.145523 16.383708,6.96724875 C16.408656,6.534297 16.583292,6.10134525 16.957512,5.8721355 C17.331732,5.64292575 17.830692,5.617458 18.204912,5.79573225 C18.60408,5.9740065 18.85356,6.35602275 18.928404,6.7889745 C18.9783,7.043652 18.953352,7.2983295 18.953352,7.553007 L19.97622,7.553007 C19.97622,7.1964585 20.001168,6.81444225 19.926324,6.45789375 C19.801584,5.84666775 19.427364,5.3627805 18.903456,5.08263525 Z M17.381628,1.87369875 C18.030276,1.87369875 18.678924,2.2047795 18.753768,2.9178765 C18.778716,3.274425 18.703872,3.60550575 18.47934,3.86018325 C18.22986,4.1403285 17.85564,4.31860275 17.531316,4.496877 C17.132148,4.700619 16.73298,4.904361 16.383708,5.209974 L16.383708,1.87369875 L17.381628,1.87369875 Z" id="Shape"></path>
                            <path d="M23.144616,1.82276325 C23.46894,1.72089225 23.818212,1.6954245 24.142536,1.66995675 L24.142536,0.90592425 L23.144616,0.90592425 L23.144616,1.82276325 Z" id="Path"></path>
                            <path d="M23.144616,2.4085215 L23.144616,7.52753925 L24.142536,7.52753925 L24.142536,2.255715 C23.818212,2.28118275 23.46894,2.33211825 23.144616,2.4085215 Z" id="Path"></path>
                            <path d="M30.878496,4.3440705 C30.504276,4.06392525 30.08016,3.885651 29.656044,3.7328445 C29.256876,3.580038 28.807812,3.4272315 28.508436,3.09615075 C28.234008,2.79053775 28.308852,2.3066505 28.58328,2.02650525 C28.857708,1.74636 29.33172,1.66995675 29.680992,1.7972955 C30.105108,1.92463425 30.354588,2.33211825 30.354588,2.76507 L31.352508,2.76507 C31.352508,2.28118275 31.20282,1.82276325 30.878496,1.440747 C30.554172,1.0841985 30.130056,0.8804565 29.656044,0.829521 C29.182032,0.7785855 28.683072,0.829521 28.258956,1.0841985 C27.859788,1.31340825 27.535464,1.66995675 27.385776,2.12837625 C27.261036,2.561328 27.285984,3.09615075 27.485568,3.478167 C27.735048,3.91111875 28.159164,4.191264 28.608228,4.36953825 C29.08224,4.57328025 29.631096,4.700619 30.08016,5.03169975 C30.254796,5.1590385 30.404484,5.311845 30.45438,5.54105475 C30.504276,5.74479675 30.479328,5.99947425 30.379536,6.1777485 C30.155004,6.66163575 29.556252,6.7889745 29.08224,6.71257125 C28.558332,6.61070025 28.159164,6.15228075 28.159164,5.59199025 L27.161244,5.59199025 C27.161244,6.126813 27.33588,6.636168 27.7101,7.01818425 C28.08432,7.4002005 28.608228,7.6039425 29.132136,7.654878 C29.680992,7.7058135 30.254796,7.57847475 30.70386,7.247394 C31.127976,6.941781 31.402404,6.4833615 31.4523,5.94853875 C31.552092,5.33731275 31.377456,4.7515545 30.878496,4.3440705 Z" id="Path"></path>
                            <path d="M40.30884,4.496877 C40.533372,4.21673175 40.757904,3.91111875 40.907592,3.580038 C41.05728,3.24895725 41.107176,2.89240875 41.05728,2.53586025 C40.982436,1.848231 40.508424,1.2879405 39.909672,1.00779525 C39.285972,0.72765 38.512584,0.72765 37.913832,1.05873075 C37.31508,1.36434375 36.866016,1.97556975 36.841068,2.68866675 C36.791172,3.40176375 37.140444,4.0384575 37.6893,4.47140925 L38.263104,3.7328445 C38.06352,3.5291025 37.888884,3.29989275 37.838988,2.99427975 C37.789092,2.7141345 37.838988,2.43398925 38.013624,2.2047795 C38.337948,1.74636 38.986596,1.61902125 39.485556,1.87369875 C39.735036,2.0010375 39.93462,2.2047795 40.009464,2.48492475 C40.109256,2.76507 40.05936,3.070683 39.93462,3.3253605 C39.80988,3.580038 39.635244,3.80924775 39.460608,4.0384575 C38.787012,4.904361 38.113416,5.7702645 37.43982,6.636168 C37.19034,6.941781 36.965808,7.247394 36.716328,7.553007 L41.281812,7.553007 L41.281812,6.61070025 L38.662272,6.61070025 L40.30884,4.496877 Z" id="Path"></path>
                            <path d="M49.814028,1.7972955 C48.816108,0.80405325 47.219436,0.523908 45.947088,1.135134 C44.649792,1.74636 43.876404,3.14708625 44.026092,4.57328025 C44.150832,5.9740065 45.198648,7.1964585 46.54584,7.553007 C47.91798,7.9095555 49.41486,7.37473275 50.213196,6.20321625 C51.03648,5.006232 51.011532,3.35082825 50.1633,2.17931175 C50.03856,2.051973 49.91382,1.92463425 49.814028,1.7972955 Z M49.589496,5.18450625 C49.190328,6.126813 48.267252,6.738039 47.244384,6.6871035 C46.271412,6.636168 45.42318,5.923071 45.123804,4.9552965 C44.824428,3.987522 45.1737,2.89240875 45.972036,2.28118275 C46.770372,1.66995675 47.893032,1.644489 48.716316,2.23024725 C49.639392,2.84147325 50.013612,4.11486075 49.589496,5.18450625 Z" id="Shape"></path>
                            <path d="M57.223584,4.496877 C57.448116,4.21673175 57.672648,3.91111875 57.822336,3.580038 C57.972024,3.24895725 58.02192,2.89240875 57.972024,2.53586025 C57.89718,1.848231 57.423168,1.2879405 56.824416,1.00779525 C56.200716,0.72765 55.427328,0.72765 54.828576,1.05873075 C54.229824,1.36434375 53.78076,1.97556975 53.755812,2.68866675 C53.705916,3.40176375 54.055188,4.0384575 54.604044,4.47140925 L55.177848,3.7328445 C54.978264,3.5291025 54.803628,3.29989275 54.753732,2.99427975 C54.703836,2.7141345 54.753732,2.43398925 54.928368,2.2047795 C55.252692,1.74636 55.90134,1.61902125 56.4003,1.87369875 C56.64978,2.0010375 56.849364,2.2047795 56.924208,2.48492475 C57.024,2.76507 56.974104,3.070683 56.849364,3.3253605 C56.724624,3.580038 56.549988,3.80924775 56.375352,4.0384575 C55.701756,4.904361 55.02816,5.7702645 54.354564,6.636168 C54.105084,6.941781 53.880552,7.247394 53.631072,7.553007 L58.196556,7.553007 L58.196556,6.61070025 L55.577016,6.61070025 L57.223584,4.496877 Z" id="Path"></path>
                            <path d="M64.333764,2.68866675 L64.333764,4.92982875 C63.859752,4.57328025 63.261,4.47140925 62.737092,4.16579625 C62.312976,3.91111875 62.163288,3.4272315 62.163288,2.94334425 C62.163288,2.459457 62.163288,0.90592425 62.163288,0.90592425 L61.165368,0.90592425 C61.165368,0.90592425 61.165368,2.28118275 61.165368,2.968812 C61.165368,3.681909 61.340004,4.36953825 61.913808,4.82795775 C62.26308,5.108103 62.687196,5.28637725 63.111312,5.43918375 C63.485532,5.5665225 63.8847,5.74479675 64.13418,6.05040975 C64.333764,6.30508725 64.358712,6.61070025 64.358712,6.91631325 C64.358712,7.12005525 64.358712,7.52753925 64.358712,7.52753925 L65.331684,7.52753925 L65.331684,2.663199 L64.333764,2.663199 L64.333764,2.68866675 Z" id="Path"></path>
                        </g>
                        <g transform="translate(15.681600, 60.394950)">
                            <g>
                                <path d="M16.693776,10.492713 C16.693776,13.4979075 14.298768,15.9428115 11.354904,15.9428115 C8.41104,15.9428115 6.016032,13.4979075 6.016032,10.492713 C6.016032,7.4875185 8.41104,5.0426145 11.354904,5.0426145 C14.298768,5.0426145 16.693776,7.4875185 16.693776,10.492713 M11.354904,5.9594535 C8.91,5.9594535 6.91416,7.9968735 6.91416,10.492713 C6.91416,12.9885525 8.91,15.0259725 11.354904,15.0259725 C13.799808,15.0259725 15.795648,12.9885525 15.795648,10.492713 C15.795648,7.9968735 13.799808,5.9594535 11.354904,5.9594535" id="Shape" fill="#F9B035"></path>
                                <path d="M28.2447,10.492713 C28.2447,13.4979075 25.849692,15.9428115 22.905828,15.9428115 C19.961964,15.9428115 17.566956,13.4979075 17.566956,10.492713 C17.566956,7.4875185 19.961964,5.0426145 22.905828,5.0426145 C25.849692,5.0426145 28.2447,7.4875185 28.2447,10.492713 M22.905828,5.9594535 C20.460924,5.9594535 18.465084,7.9968735 18.465084,10.492713 C18.465084,12.9885525 20.460924,15.0259725 22.905828,15.0259725 C25.350732,15.0259725 27.346572,12.9885525 27.346572,10.492713 C27.37152,7.9968735 25.37568,5.9594535 22.905828,5.9594535" id="Shape" fill="#10A651"></path>
                                <path d="M5.566968,0.0509355 C2.623104,0.0509355 0.228096,2.4958395 0.228096,5.501034 C0.228096,8.5062285 2.623104,10.9511325 5.566968,10.9511325 C5.716656,10.9511325 5.866344,10.9511325 6.04098,10.9256647 C6.04098,10.7728582 6.016032,10.6455195 6.016032,10.492713 C6.016032,10.3399065 6.016032,10.1616322 6.04098,10.0088257 C5.891292,10.0342935 5.741604,10.0342935 5.566968,10.0342935 C3.122064,10.0342935 1.126224,7.9968735 1.126224,5.501034 C1.126224,3.0051945 3.122064,0.9677745 5.566968,0.9677745 C8.011872,0.9677745 10.007712,3.0051945 10.007712,5.501034 C10.007712,7.51298625 8.735364,9.2193255 6.939108,9.80508375 C6.91416,10.0342935 6.889212,10.2635032 6.889212,10.492713 C6.889212,10.594584 6.889212,10.6709872 6.889212,10.7728582 C9.184428,10.1616322 10.880892,8.02234125 10.880892,5.501034 C10.90584,2.4958395 8.510832,0.0509355 5.566968,0.0509355" id="Path" fill="#1081C4"></path>
                                <path d="M28.693764,0.0509355 C25.899588,0.0509355 23.579424,2.26662975 23.37984,5.06808225 C23.679216,5.09355 23.978592,5.1444855 24.25302,5.22088875 C24.402708,2.852388 26.323704,0.9677745 28.693764,0.9677745 C31.163616,0.9677745 33.134508,3.0051945 33.134508,5.501034 C33.134508,8.02234125 31.138668,10.0342935 28.693764,10.0342935 C26.473392,10.0342935 24.62724,8.353422 24.302916,6.1631955 C24.00354,6.0613245 23.704164,6.010389 23.37984,5.9594535 C23.62932,8.73543825 25.899588,10.9256647 28.693764,10.9256647 C31.637628,10.9256647 34.032636,8.48076075 34.032636,5.47556625 C34.032636,2.4958395 31.637628,0.0509355 28.693764,0.0509355" id="Path" fill="#E83A51"></path>
                                <path d="M17.117892,0.0509355 C14.323716,0.0509355 12.003552,2.26662975 11.803968,5.06808225 C12.103344,5.09355 12.40272,5.1444855 12.677148,5.22088875 C12.826836,2.852388 14.747832,0.9677745 17.117892,0.9677745 C19.562796,0.9677745 21.558636,3.0051945 21.558636,5.501034 C21.558636,7.51298625 20.286288,9.2193255 18.490032,9.80508375 C18.465084,10.0342935 18.440136,10.2635032 18.440136,10.492713 C18.440136,10.594584 18.440136,10.6709872 18.440136,10.7728582 C20.735352,10.1616322 22.431816,8.02234125 22.431816,5.501034 C22.456764,2.4958395 20.086704,0.0509355 17.117892,0.0509355" id="Path" fill="#020303"></path>
                            </g>
                            <path d="M17.566956,10.492713 C17.566956,10.3399065 17.566956,10.1616322 17.591904,10.0088257 C17.442216,10.0342935 17.292528,10.0342935 17.117892,10.0342935 C14.89752,10.0342935 13.051368,8.353422 12.727044,6.1631955 C12.427668,6.0613245 12.128292,6.010389 11.803968,5.9594535 C12.053448,8.73543825 14.323716,10.9256647 17.117892,10.9256647 C17.26758,10.9256647 17.417268,10.9256647 17.591904,10.900197 C17.591904,10.7728582 17.566956,10.6455195 17.566956,10.492713" id="Path" fill="#020303"></path>
                        </g>
                        <g transform="translate(11.761200, 0.000000)" fill="#D8C478" fill-rule="nonzero">
                            <g id="Path">
                                <path d="M23.333508,36.4807327 C22.784652,36.2769907 21.836628,36.251523 21.038292,36.9136845 C20.239956,36.251523 19.31688,36.2769907 18.743076,36.4807327 C18.269064,36.659007 17.919792,36.7863457 17.221248,36.760878 C17.894844,38.2125397 19.341828,39.205782 21.038292,39.205782 C22.734756,39.205782 24.156792,38.2125397 24.855336,36.760878 C24.18174,36.760878 23.80752,36.659007 23.333508,36.4807327 Z"></path>
                                <path d="M21.038292,0.06185025 C9.562212,0.06185025 0.23166,9.561321 0.23166,21.3019537 C0.23166,31.361715 7.067412,39.7660725 16.273224,41.9817667 C8.96346,37.98333 5.994648,28.8404077 9.512316,21.174615 C10.08612,24.2052772 12.007116,26.9048587 14.901084,28.305585 C11.133936,19.3154693 13.903164,8.746353 21.68694,2.8887705 C20.165112,8.236998 22.510224,13.126806 27.54972,16.8196297 C33.312708,21.0472763 33.562188,29.6553758 28.472796,34.315974 C30.493584,33.8320868 32.364684,32.7115058 33.78672,30.954231 C32.91354,35.5129583 30.119364,39.6387338 25.828308,41.9817667 C35.009172,39.7915402 41.869872,31.361715 41.869872,21.3019537 C41.844924,9.561321 32.53932,0.06185025 21.038292,0.06185025 Z"></path>
                            </g>
                            <path d="M36.231624,40.5810405 L36.630792,40.5810405 L36.630792,41.9817667 L36.830376,41.9817667 L36.830376,40.5810405 L37.229544,40.5810405 L37.229544,40.4027662 L36.256572,40.4027662 L36.256572,40.5810405 L36.231624,40.5810405 Z M38.926008,40.4027662 C38.626632,40.4027662 38.4021,40.530105 38.27736,40.7593147 C38.15262,40.5555727 37.928088,40.4027662 37.628712,40.4027662 L37.52892,40.4027662 L37.52892,41.9817667 L37.728504,41.9817667 L37.728504,40.6065082 L37.728504,40.6065082 C38.002932,40.6065082 38.177568,40.8102502 38.177568,41.1158632 L38.177568,41.4978795 L38.377152,41.4978795 L38.377152,41.1158632 C38.377152,40.8102502 38.551788,40.6065082 38.826216,40.6065082 L38.826216,40.6065082 L38.826216,41.9817667 L39.0258,41.9817667 L39.0258,40.4027662 L38.926008,40.4027662 Z" id="Shape"></path>
                        </g>
                    </g>
                    <rect id="Rectangle" fill="#12120F" fill-rule="nonzero" x="106.644171" y="15.7609479" width="1" height="108.264455"></rect>
                    <rect id="Rectangle" fill="#12120F" fill-rule="nonzero" x="249.67109" y="15.7609479" width="1" height="108.264455"></rect>
                    <g id="Logo-PARIS-2024" transform="translate(266.000000, 32.673460)" fill-rule="nonzero">
                        <g id="Group" transform="translate(0.000000, 0.500000)">
                            <g transform="translate(0.000000, 46.323900)" fill="#020303">
                                <path d="M3.28231518,1.145529 C2.80259219,0.919296 2.27237205,0.894159 1.7421519,0.894159 C1.28767749,0.894159 0,0.894159 0,0.894159 L0,7.454916 L1.00994313,7.454916 C1.00994313,7.077861 0.984694554,6.700806 1.13618602,6.348888 C1.38867181,5.795874 1.99463769,5.519367 2.52485783,5.267997 C3.08032655,4.99149 3.71154101,4.74012 4.09026969,4.212243 C4.4185012,3.759777 4.51949552,3.131352 4.4185012,2.578338 C4.29225831,1.924776 3.8377839,1.422036 3.28231518,1.145529 Z M3.23181802,3.659229 C2.97933224,4.011147 2.57535499,4.212243 2.19662631,4.413339 C1.79264906,4.614435 1.36342323,4.815531 1.00994313,5.142312 L1.00994313,1.849365 C1.33817465,1.849365 1.66640617,1.849365 1.96938911,1.849365 C2.49960925,1.849365 3.10557513,2.025324 3.33281234,2.578338 C3.45905523,2.905119 3.43380665,3.357585 3.23181802,3.659229 Z" id="Shape"></path>
                                <path d="M10.7811429,1.070118 C9.8974427,0.567378 8.63501378,0.7182 7.95330217,1.497447 C7.62507065,1.874502 7.4483306,2.352105 7.42308202,2.854845 C7.42308202,2.98053 7.42308202,7.454916 7.42308202,7.454916 L8.43302516,7.454916 L8.43302516,5.293134 C9.03899104,5.217723 9.69545407,5.267997 10.2004256,5.645052 C10.6549,5.971833 10.8568887,6.474573 10.8568887,7.027587 C10.8568887,7.178409 10.8568887,7.480053 10.8568887,7.480053 L11.8668318,7.480053 L11.8668318,3.081078 C11.8415832,2.251557 11.5133517,1.47231 10.7811429,1.070118 Z M10.7811429,4.99149 C10.1751771,4.388202 9.26622824,4.161969 8.43302516,4.312791 C8.43302516,3.960873 8.43302516,3.608955 8.43302516,3.2319 C8.43302516,3.030804 8.43302516,2.829708 8.48352231,2.653749 C8.58451663,2.276694 8.86225099,1.97505 9.21573108,1.849365 C9.59445976,1.72368 10.0236856,1.773954 10.3519171,2.025324 C10.6801486,2.276694 10.8316401,2.628612 10.8316401,3.030804 C10.8316401,3.332448 10.8316401,3.634092 10.8316401,3.960873 C10.8316401,4.337928 10.8316401,4.689846 10.8316401,5.066901 C10.8063915,5.016627 10.8063915,5.016627 10.7811429,4.99149 Z" id="Shape"></path>
                                <path d="M18.8101908,5.016627 C18.683948,4.966353 18.5577051,4.916079 18.4314622,4.865805 C18.7596937,4.689846 19.0879252,4.463613 19.3151624,4.161969 C19.517151,3.885462 19.6433939,3.558681 19.6938911,3.2319 C19.7696368,2.502927 19.5423996,1.824228 18.9364337,1.396899 C18.1537278,0.818748 17.1437847,0.894159 16.2095873,0.894159 C15.8813558,0.894159 15.2501413,0.894159 15.2501413,0.894159 L15.2501413,7.454916 L16.2600844,7.454916 C16.2600844,7.25382 16.2600844,7.052724 16.2600844,6.876765 C16.285333,6.449436 16.4620731,6.022107 16.8408017,5.795874 C17.2195304,5.569641 17.724502,5.544504 18.1032307,5.720463 C18.5072079,5.896422 18.7596937,6.273477 18.8354394,6.700806 C18.8859366,6.952176 18.860688,7.203546 18.860688,7.454916 L19.8958797,7.454916 C19.8958797,7.102998 19.9211283,6.725943 19.8453826,6.374025 C19.7191397,5.770737 19.340411,5.293134 18.8101908,5.016627 Z M17.2700276,1.849365 C17.9264906,1.849365 18.5829536,2.176146 18.6586994,2.879982 C18.683948,3.2319 18.6082022,3.558681 18.380965,3.810051 C18.1284792,4.086558 17.7497506,4.262517 17.421519,4.438476 C17.0175418,4.639572 16.6135645,4.840668 16.2600844,5.142312 L16.2600844,1.849365 L17.2700276,1.849365 Z" id="Shape"></path>
                                <path d="M23.0772006,1.799091 C23.4054321,1.698543 23.7589122,1.673406 24.0871437,1.648269 L24.0871437,0.894159 L23.0772006,0.894159 L23.0772006,1.799091 Z" id="Path"></path>
                                <path d="M23.0772006,2.377242 L23.0772006,7.429779 L24.0871437,7.429779 L24.0871437,2.22642 C23.7589122,2.251557 23.4054321,2.301831 23.0772006,2.377242 Z" id="Path"></path>
                                <path d="M30.9295084,4.287654 C30.5507798,4.011147 30.1215539,3.835188 29.6923281,3.684366 C29.2883508,3.533544 28.8338764,3.382722 28.5308935,3.055941 C28.2531591,2.754297 28.3289049,2.276694 28.6066392,2.000187 C28.8843736,1.72368 29.3640966,1.648269 29.7175767,1.773954 C30.1468025,1.899639 30.3992883,2.301831 30.3992883,2.72916 L31.4092314,2.72916 C31.4092314,2.251557 31.25774,1.799091 30.9295084,1.422036 C30.6012769,1.070118 30.1720511,0.869022 29.6923281,0.818748 C29.2126051,0.768474 28.7076335,0.818748 28.2784077,1.070118 C27.8744305,1.296351 27.5461989,1.648269 27.3947075,2.100735 C27.2684646,2.528064 27.2937132,3.055941 27.4957018,3.432996 C27.7481876,3.860325 28.1774134,4.136832 28.6318878,4.312791 C29.1116108,4.513887 29.6670795,4.639572 30.1215539,4.966353 C30.298294,5.092038 30.4497854,5.24286 30.5002826,5.469093 C30.5507798,5.670189 30.5255312,5.921559 30.4245369,6.097518 C30.1972997,6.575121 29.5913338,6.700806 29.1116108,6.625395 C28.5813907,6.524847 28.1774134,6.072381 28.1774134,5.519367 L27.1674703,5.519367 C27.1674703,6.047244 27.3442103,6.549984 27.722939,6.927039 C28.1016677,7.304094 28.6318878,7.50519 29.162108,7.555464 C29.7175767,7.605738 30.298294,7.480053 30.7527684,7.153272 C31.1819942,6.851628 31.4597286,6.399162 31.5102257,5.871285 C31.61122,5.267997 31.4092314,4.689846 30.9295084,4.287654 Z" id="Path"></path>
                                <path d="M40.4482225,4.438476 C40.6754597,4.161969 40.9026969,3.860325 41.0541883,3.533544 C41.2056798,3.206763 41.256177,2.854845 41.2056798,2.502927 C41.1299341,1.824228 40.6502111,1.271214 40.0442452,0.994707 C39.4130307,0.7182 38.6303248,0.7182 38.0243589,1.044981 C37.4183931,1.346625 36.9639187,1.949913 36.9386701,2.653749 C36.9134215,3.357585 37.241653,3.98601 37.7971217,4.413339 L38.377839,3.684366 C38.1758504,3.48327 37.9991104,3.257037 37.9486132,2.955393 C37.898116,2.678886 37.9486132,2.402379 38.1253533,2.176146 C38.4535848,1.72368 39.1100478,1.597995 39.6150194,1.849365 C39.8675052,1.97505 40.0694938,2.176146 40.1452395,2.452653 C40.2462338,2.72916 40.1957367,3.030804 40.0694938,3.282174 C39.9432509,3.533544 39.7665108,3.759777 39.5897708,3.98601 C38.9080592,4.840668 38.2263476,5.695326 37.544636,6.549984 C37.2921502,6.851628 37.064913,7.153272 36.8124272,7.454916 L41.432917,7.454916 L41.432917,6.524847 L38.7818163,6.524847 L40.4482225,4.438476 Z" id="Path"></path>
                                <path d="M50.0679308,1.773954 C49.0579877,0.793611 47.4420787,0.517104 46.1544012,1.120392 C44.8414751,1.72368 44.0587692,3.106215 44.2102606,4.513887 C44.3365035,5.896422 45.3969438,7.102998 46.760367,7.454916 C48.1490388,7.806834 49.6639535,7.278957 50.471908,6.122655 C51.3051111,4.941216 51.2798626,3.307311 50.4214109,2.151009 C50.295168,2.025324 50.1941737,1.899639 50.0679308,1.773954 Z M49.8406936,5.117175 C49.4367163,6.047244 48.5025189,6.650532 47.4673272,6.600258 C46.4826327,6.549984 45.624181,5.846148 45.3211981,4.890942 C45.0182151,3.935736 45.3716952,2.854845 46.1796497,2.251557 C46.9876042,1.648269 48.1237903,1.623132 48.9569933,2.201283 C49.9164393,2.804571 50.2699194,4.061421 49.8406936,5.117175 Z" id="Shape"></path>
                                <path d="M57.5667586,4.438476 C57.7939958,4.161969 58.021233,3.860325 58.1727244,3.533544 C58.3242159,3.206763 58.3747131,2.854845 58.3242159,2.502927 C58.2484702,1.824228 57.7687472,1.271214 57.1627813,0.994707 C56.5315668,0.7182 55.7488609,0.7182 55.142895,1.044981 C54.5369292,1.346625 54.0824547,1.949913 54.0572062,2.653749 C54.006709,3.357585 54.3601891,3.98601 54.9156578,4.413339 L55.4963751,3.684366 C55.2943865,3.48327 55.1176465,3.257037 55.0671493,2.955393 C55.0166521,2.678886 55.0671493,2.402379 55.2438893,2.176146 C55.5721209,1.72368 56.2285839,1.597995 56.7335555,1.849365 C56.9860413,1.97505 57.1880299,2.176146 57.2637756,2.452653 C57.3647699,2.72916 57.3142728,3.030804 57.1880299,3.282174 C57.061787,3.533544 56.8850469,3.759777 56.7083069,3.98601 C56.0265953,4.840668 55.3448837,5.695326 54.663172,6.549984 C54.4106863,6.851628 54.1834491,7.153272 53.9309633,7.454916 L58.5514531,7.454916 L58.5514531,6.524847 L55.9003524,6.524847 L57.5667586,4.438476 Z" id="Path"></path>
                                <path d="M64.787852,2.653749 L64.787852,4.865805 C64.308129,4.513887 63.7021631,4.413339 63.1719429,4.111695 C62.7427171,3.860325 62.5912256,3.382722 62.5912256,2.905119 C62.5912256,2.427516 62.5912256,0.894159 62.5912256,0.894159 L61.5812825,0.894159 C61.5812825,0.894159 61.5812825,2.251557 61.5812825,2.930256 C61.5812825,3.634092 61.7580226,4.312791 62.3387399,4.765257 C62.69222,5.041764 63.1214458,5.217723 63.5506716,5.368545 C63.9294003,5.49423 64.3333775,5.670189 64.5858633,5.971833 C64.787852,6.223203 64.8131005,6.524847 64.8131005,6.826491 C64.8131005,7.027587 64.8131005,7.429779 64.8131005,7.429779 L65.7977951,7.429779 L65.7977951,2.628612 L64.787852,2.628612 L64.787852,2.653749 Z" id="Path"></path>
                            </g>
                            <g transform="translate(22.002333, 59.610600)" id="Path">
                                <path d="M9.78562757,0.201096 C8.24546429,-0.150822 6.14983229,0.226233 4.18044318,1.382535 C1.07486805,3.167262 -0.566289542,6.108291 0.519399325,7.943292 C1.20111094,9.124731 2.84226853,9.577197 4.7359119,9.275553 C3.87746024,9.074457 3.17050005,8.647128 2.79177137,7.968429 C1.73133108,6.108291 3.3472401,3.167262 6.45281523,1.407672 C7.56375267,0.75411 8.72518728,0.351918 9.78562757,0.201096" fill="#E62A46"></path>
                                <path d="M9.81087614,7.490826 C10.2653506,8.999046 11.6540224,10.607814 13.6234115,11.738979 C16.7289866,13.523706 20.1122961,13.473432 21.1727364,11.613294 C21.854448,10.431855 21.4252222,8.79795 20.238539,7.314867 C20.4910248,8.169525 20.4657762,8.973909 20.0870475,9.627471 C19.0266072,11.487609 15.6432977,11.537883 12.5377226,9.753156 C11.4267852,9.124731 10.4925878,8.320347 9.81087614,7.490826" fill="#10A651"></path>
                                <path d="M7.71524414,3.845961 C6.65480386,5.002263 5.92259508,6.988086 5.92259508,9.275553 C5.92259508,12.845007 7.66474699,15.710625 9.81087614,15.710625 C11.1742994,15.710625 12.3862311,14.529186 13.0679427,12.744459 C12.4619769,13.398021 11.7297681,13.775076 10.9723107,13.775076 C8.82618159,13.775076 7.08402969,10.884321 7.08402969,7.340004 C7.10927827,6.058017 7.33651547,4.851441 7.71524414,3.845961" fill="#1081C4"></path>
                            </g>
                            <g transform="translate(11.542207, 0.000000)" fill="#D8C478">
                                <g id="Path">
                                    <path d="M23.6543109,36.006957 C23.0988422,35.805861 22.1393962,35.780724 21.3314417,36.434286 C20.5234872,35.780724 19.5892898,35.805861 19.0085725,36.006957 C18.5288495,36.182916 18.1753694,36.308601 17.4684093,36.283464 C18.1501209,37.716273 19.6145384,38.696616 21.3314417,38.696616 C23.0483451,38.696616 24.487514,37.716273 25.1944742,36.283464 C24.487514,36.283464 24.1087853,36.182916 23.6543109,36.006957 Z"></path>
                                    <path d="M21.3314417,0.061047 C9.71709571,0.061047 0.274127422,9.437148 0.274127422,21.025305 C0.274127422,30.95442 7.19223788,39.24963 16.5089633,41.436549 C9.11112983,37.49004 6.10654901,28.465857 9.66659855,20.89962 C10.2473159,23.890923 12.1914564,26.555445 15.1202915,27.93798 C11.3077561,19.064619 14.1103483,8.632764 21.9879048,2.851254 C20.4477415,8.130024 22.8211079,12.956328 27.9213207,16.601193 C33.7537423,20.773935 34.006228,29.270241 28.8555181,33.870312 C30.9006529,33.392709 32.7942963,32.286681 34.2334653,30.552228 C33.349765,35.051751 30.5219242,39.123945 26.1791688,41.436549 C35.4706456,39.274767 42.4140046,30.95442 42.4140046,21.025305 C42.388756,9.437148 32.9457878,0.061047 21.3314417,0.061047 Z"></path>
                                </g>
                                <path d="M36.6825773,40.054014 L37.0865546,40.054014 L37.0865546,41.436549 L37.2885432,41.436549 L37.2885432,40.054014 L37.6925205,40.054014 L37.6925205,39.878055 L36.7078259,39.878055 L36.7078259,40.054014 L36.6825773,40.054014 Z M39.4346724,39.878055 C39.1316894,39.878055 38.9044522,40.00374 38.7782093,40.229973 C38.6519665,40.028877 38.4247293,39.878055 38.1217463,39.878055 L38.020752,39.878055 L38.020752,41.436549 L38.2227406,41.436549 L38.2227406,40.079151 L38.2227406,40.079151 C38.500475,40.079151 38.677215,40.280247 38.677215,40.581891 L38.677215,40.958946 L38.8792037,40.958946 L38.8792037,40.581891 C38.8792037,40.280247 39.0559437,40.079151 39.3336781,40.079151 L39.3336781,40.079151 L39.3336781,41.436549 L39.5356667,41.436549 L39.5356667,39.878055 L39.4346724,39.878055 Z" id="Shape"></path>
                            </g>
                        </g>
                    </g>
                    <polygon id="Path" fill="#FFFFFF" points="177.494787 63.9275829 184.270521 63.9275829 183.534028 65.2532701 176.610995 65.2532701"></polygon>
                    <polygon id="Path" fill="#FFFFFF" points="172.633934 69.8195261 184.712417 69.8195261 183.828626 71.1452133 171.750142 71.1452133"></polygon>
                    <polygon id="Path" fill="#FFFFFF" points="180.882654 57.1518483 181.766445 56.562654 183.975924 59.9505213 181.029953 61.7181043 180.440758 60.8343128 182.502938 59.6559242"></polygon>
                    <polygon id="Path" fill="#FFFFFF" points="163.354123 59.5086256 172.633934 59.5086256 171.897441 60.8343128 162.470332 60.8343128"></polygon>
                </g>
                <g id="LOGO-CE" transform="translate(131.000000, 45.000000)">
                    <polygon id="Fill-1" fill="#FF0000" points="62.207097 29.212482 62.2075676 0.063765758 33.0579102 0.063295162 33.0588513 29.2120114"></polygon>
                    <polygon id="Fill-2" fill="#FFFFFF" points="49.3275433 19.2640355 56.1474205 19.2649767 55.2787003 20.6551173 48.4621173 20.6560585"></polygon>
                    <polygon id="Fill-3" fill="#FFFFFF" points="44.3980031 25.1811684 56.5238503 25.1764625 55.6556007 26.5656619 43.5306947 26.5675442"></polygon>
                    <polygon id="Fill-4" fill="#FFFFFF" points="52.7381878 12.4702293 53.6454969 11.9003375 55.7777674 15.3215704 52.8850138 17.1338356 52.3188868 16.2293501 54.3118608 14.9822707"></polygon>
                    <polygon id="Fill-5" fill="#FFFFFF" points="35.1768157 14.8983635 44.4833222 14.8978929 43.6178962 16.2889746 34.3076249 16.2889746"></polygon>
                    <g id="Group-14" transform="translate(35.765296, 0.825425)" fill="#FFFFFF">
                        <path d="M16.0889243,14.0258314 C16.5736382,14.0234784 16.9637623,13.6328838 16.965174,13.1519347 C16.9637623,12.6672208 16.570344,12.2766257 16.0893949,12.2766257 C15.607034,12.2761555 15.2150275,12.6686326 15.2140863,13.1495817 C15.2150275,13.6342956 15.6075046,14.0253608 16.0889243,14.0258314" id="Fill-6"></path>
                        <polygon id="Fill-8" points="9.39168437 12.9938615 0.085648472 12.9919791 0.953898092 11.6065444 10.2594634 11.6060738"></polygon>
                        <polygon id="Fill-10" points="2.49726473 9.11191505 11.8023594 9.11191505 10.935051 10.501585 1.62666213 10.4982909"></polygon>
                        <path d="M22.095941,0.0361888324 C13.9743953,4.0748437 2.17561237,8.74080304 2.17655356,18.2623719 C2.17655356,21.8059598 4.21423424,24.3980026 6.26367982,25.3777834 L16.7499705,8.5930359 L15.9344276,7.29513213 L5.89332077,23.3603384 C4.86177434,22.5993846 3.53892898,20.6092342 3.53751719,17.9527197 C3.53987017,10.6151869 12.8214351,5.77322467 20.8314496,2.0752813 L22.095941,0.0361888324 Z" id="Fill-12"></path>
                    </g>
                    <g id="Group-48" transform="translate(0.000000, 34.708337)">
                        <path d="M5.11933153,1.69729859 C4.74520771,1.60459118 4.5226158,1.58388496 4.10802072,1.58576734 C2.6397612,1.58106138 1.67080404,2.40554557 1.67033344,3.65121319 C1.67080404,4.53922784 2.15269434,5.14864966 3.1103572,5.15006145 C3.90048789,5.15006145 4.57108719,4.74770187 4.96309365,4.49452122 L4.74191353,6.02019345 C4.25014071,6.27525648 3.65436618,6.43714518 3.00870847,6.43714518 C1.1931491,6.43949449 0.237839218,5.31241707 0.237368622,3.7203908 C0.237368622,1.64412125 1.67080404,0.261039601 4.05907874,0.258643616 C4.56779301,0.257274833 4.79509088,0.290216553 5.33298211,0.417748069 L5.11933153,1.69729859 Z" id="Fill-15" fill="#666666"></path>
                        <path d="M9.97070569,4.13757415 C9.80129113,3.5785061 9.70152478,1.99495056 9.70152478,1.99495056 C9.70152478,1.99495056 9.10904441,3.66038981 8.84456946,4.13804475 L9.97070569,4.13757415 Z M11.6662631,6.23549112 L10.2601222,6.23549112 L10.0831781,5.19265038 L8.43938631,5.19453277 L7.98055521,6.23549112 L6.56359065,6.2378441 L9.20175183,0.415630387 L10.5956572,0.415630387 L11.6662631,6.23549112 Z" id="Fill-17" fill="#666666"></path>
                        <polygon id="Fill-19" fill="#666666" points="15.1647208 6.22306738 13.7863451 6.22494977 14.5684757 0.419677513 15.9360276 0.420148109"></polygon>
                        <path d="M21.6285451,1.95325576 C21.0647711,1.62666213 20.6864119,1.45489459 20.2849935,1.45677698 C19.9386349,1.45489459 19.6793365,1.66336862 19.6779247,1.94337324 C19.6779247,2.18855376 19.8543982,2.42008699 20.3998189,2.82715253 C21.2374798,3.44928044 21.4967782,3.97305379 21.4967782,4.58059323 C21.4944252,5.09542525 21.31654,5.57496257 20.9617106,5.90485037 C20.5984105,6.24462068 20.2666403,6.43615325 19.6082765,6.43475583 C18.7357915,6.43709445 18.0228385,6.15003089 17.5753018,5.84932004 L17.8595417,4.63847653 C18.0793101,4.77871414 18.184253,4.8657744 18.461434,5.00224724 C18.8369696,5.19613279 19.0586203,5.29213438 19.3955671,5.28742842 C19.8972224,5.28884021 20.1000493,4.983894 20.0995787,4.72318381 C20.0986375,4.44035562 19.85581,4.13070345 19.2426234,3.65916626 C18.8280283,3.33163144 18.2873135,2.86762379 18.2877841,1.98102092 C18.2868429,1.16736044 19.0237962,0.304287374 20.2101688,0.302875586 C20.8482969,0.302875586 21.5231316,0.61535133 21.7979597,0.77300099 L21.6285451,1.95325576 Z" id="Fill-21" fill="#666666"></path>
                        <path d="M27.5137716,1.94544386 C26.9523506,1.6230856 26.5664619,1.45225926 26.1688082,1.45131806 C25.8233908,1.45131806 25.5631512,1.6593215 25.5640924,1.93697314 C25.5655042,2.18544782 25.7405659,2.41933404 26.2808101,2.82687017 C27.1236475,3.45040987 27.3867107,3.97230084 27.3862401,4.57136954 C27.3871813,5.09090753 27.2012959,5.57138604 26.8478783,5.90503861 C26.483637,6.2476325 26.148102,6.43116494 25.4949148,6.43022735 C24.6205474,6.43116494 23.9057121,6.14410138 23.4609989,5.84621411 L23.7414741,4.64007656 C23.9551247,4.77796119 24.0685383,4.86455085 24.3471311,4.99867071 C24.718902,5.19443865 24.9461998,5.28526368 25.2807936,5.28808725 C25.7833901,5.28855785 25.981511,4.98643522 25.9791581,4.72196026 C25.9810404,4.43913207 25.7415071,4.1299505 25.1311441,3.6593545 C24.7109018,3.32711372 24.1683047,2.86781202 24.170187,1.9760326 C24.1706576,1.16613689 24.9043168,0.304005016 26.0944541,0.306331881 C26.7302293,0.303063824 27.4111817,0.612245396 27.682245,0.766600884 L27.5137716,1.94544386 Z" id="Fill-23" fill="#666666"></path>
                        <polygon id="Fill-25" fill="#666666" points="33.93896 1.61687374 31.6462163 1.61922672 31.4998609 2.63100812 33.6123664 2.62677275 33.446246 3.85738129 31.3365641 3.85738129 31.1855028 5.01881222 33.9761371 5.01881222 33.8053107 6.23389109 29.6240653 6.2334205 30.4104312 0.411677381 34.0947273 0.408383209"></polygon>
                        <polygon id="Fill-27" fill="#666666" points="52.8963081 1.61593254 50.6030938 1.61828552 50.4661503 2.62959633 52.574891 2.62959633 52.4031235 3.85549891 50.2948534 3.85785189 50.1395567 5.01692984 52.9353675 5.01692984 52.7598352 6.23153811 48.5823545 6.23436169 49.3753088 0.408383209 53.0548989 0.410265593"></polygon>
                        <polygon id="Fill-29" fill="#666666" points="95.0245326 1.61273249 92.7299065 1.61508547 92.5896689 2.62545508 94.695586 2.62498449 94.5294656 3.85653422 92.4207249 3.85512243 92.2654282 5.01467098 95.0584155 5.01467098 94.8880597 6.22786746 90.7086967 6.23069104 91.5002391 0.406124348 95.1788881 0.406124348"></polygon>
                        <path d="M63.8989837,4.13343291 C63.7323927,3.57012949 63.6316852,1.99127991 63.6316852,1.99127991 C63.6316852,1.99127991 63.0368519,3.65530737 62.7704945,4.13296231 L63.8989837,4.13343291 Z M65.5912469,6.23134987 L64.1888709,6.23134987 L64.0175739,5.18568556 L62.3638996,5.18521497 L61.9050685,6.23229107 L60.4932805,6.23229107 L63.1272063,0.41525391 L64.5234646,0.41525391 L65.5912469,6.23134987 Z" id="Fill-31" fill="#666666"></path>
                        <path d="M40.4822679,5.02544762 C40.4822679,5.02544762 40.8719214,5.02450643 41.1119254,5.02450643 C41.5109908,5.02356524 42.1660604,4.93885796 42.5223016,4.53743957 C42.8248948,4.18872794 42.9740738,3.8395457 42.9717208,3.2395358 C42.9712502,2.68140895 42.7731293,2.30210857 42.5783025,2.12469388 C42.2790035,1.85268939 41.9914693,1.69127496 41.3462822,1.69127496 L40.9547463,1.69268675 L40.4822679,5.02544762 Z M41.1058076,0.415018612 C42.2968861,0.415018612 42.5594787,0.504902448 43.0234863,0.749141772 C43.9058538,1.20091393 44.4046856,2.08045786 44.4060974,3.2282415 C44.4060974,4.18308078 44.1707994,4.8042675 43.6945562,5.34827648 C43.2060776,5.90310916 42.3058274,6.21934968 41.7702892,6.22076146 C41.634287,6.2287616 40.8422739,6.23205577 40.8422739,6.23205577 L38.9495368,6.21793789 L39.7335497,0.415489208 L41.1058076,0.415018612 Z" id="Fill-33" fill="#666666"></path>
                        <polygon id="Fill-35" fill="#666666" points="46.3486236 0.407253778 45.6248469 1.94280853 46.4625078 1.94280853 48.0211217 0.41054795"></polygon>
                        <path d="M57.1061658,3.01256735 L57.29111,3.01256735 C57.5988798,3.01350855 57.7532353,2.98150802 57.9099437,2.90480087 C58.0892408,2.81303465 58.3377155,2.60785479 58.3381861,2.25020183 C58.3391273,2.04596317 58.2873617,1.89772543 58.1452417,1.7720763 C57.9744154,1.6191326 57.8214717,1.56407287 57.4525244,1.56595525 L57.3071103,1.56736704 L57.1061658,3.01256735 Z M57.2840511,0.41064207 L57.8845315,0.40828909 C58.8864304,0.41064207 59.7730333,1.05865276 59.7735039,2.12219972 C59.7716215,2.79326962 59.3885564,4.05352571 57.8318248,4.04834915 L57.2562859,4.05070213 L56.9621634,4.04834915 L56.6628643,6.2192085 L55.2699002,6.22156148 L56.0661486,0.409230282 L57.2840511,0.41064207 Z" id="Fill-37" fill="#666666"></path>
                        <path d="M69.427122,2.85402356 L69.713715,2.85402356 C70.0497205,2.85261177 70.2572533,2.8140229 70.3777259,2.7439041 C70.603612,2.60884305 70.7283199,2.37166266 70.7283199,2.17683592 C70.7269082,1.99848003 70.6422009,1.84318335 70.5334932,1.73918164 C70.3998439,1.60553237 70.1457221,1.52553105 69.7739513,1.52553105 L69.6003013,1.52553105 L69.427122,2.85402356 Z M69.7984222,0.412100917 L70.3189014,0.410687637 C71.6516293,0.409277341 72.1151664,1.40976444 72.1161075,2.11895261 C72.1142252,2.67378529 71.8601033,3.14720487 71.540098,3.3674438 C71.3156237,3.5199169 71.1937394,3.57544723 71.0210307,3.64227186 L70.9819712,3.65356617 C71.3193885,3.83992218 71.564569,4.25498785 71.7885727,4.7321722 L72.5250555,6.22396152 L70.9885595,6.22302033 L70.4111382,5.01311801 C70.044544,4.23051686 69.924542,4.03239595 69.6370078,3.90345264 C69.5273589,3.85498125 69.4553578,3.84651053 69.37818,3.84698112 L69.2868844,3.84651053 L68.9744086,6.22537331 L67.6172098,6.2263145 L68.397458,0.410687637 L69.7984222,0.412100917 Z" id="Fill-39" fill="#666666"></path>
                        <path d="M79.9332718,1.72346373 C79.3544387,1.61569725 79.1511413,1.56157871 78.6306621,1.56393169 C76.384978,1.56581407 75.8028507,2.83124671 75.8019095,3.58043555 C75.8009683,4.60586423 76.6005109,5.16116751 77.6682933,5.16116751 C77.956298,5.15787334 78.0664175,5.13104937 78.1558307,5.10893135 L78.2843034,4.17621008 L77.1581672,4.17997485 L77.3125227,3.08630975 L79.772328,3.08678034 L79.3445562,6.19130215 C78.7920765,6.30283341 78.2203024,6.3625991 77.6682933,6.36075986 C76.4720382,6.36401089 75.7332025,6.07600613 75.1228395,5.49623186 C74.5990662,5.00022368 74.3868274,4.42421417 74.3830626,3.61996561 C74.3835332,1.67405115 75.9492061,0.290969507 78.4631299,0.291439983 C79.1337292,0.291439983 79.7572689,0.351205795 80.1153925,0.492855191 L79.9332718,1.72346373 Z" id="Fill-41" fill="#666666"></path>
                        <polygon id="Fill-43" fill="#666666" points="84.1428942 3.46476305 83.7993591 6.21492607 82.4647489 6.21633786 83.2355851 0.413418586 84.5471362 0.414359778 85.9833952 3.00122599 86.5650518 4.21959903 86.6695241 3.08452148 87.0182358 0.415771566 88.3533166 0.414359778 87.5697743 6.21727905 86.2690469 6.21586727 84.9113775 3.66523695 84.2544255 2.29956735"></polygon>
                        <g id="Group-47" transform="translate(0.000000, 7.529536)">
                            <mask id="mask-2" fill="white">
                                <use xlink:href="#path-1"></use>
                            </mask>
                            <g id="Clip-46"></g>
                            <polygon id="Fill-45" fill="#FF0000" mask="url(#mask-2)" points="0.507584846 0.0566126988 94.8964364 0.0537891228 94.3816043 0.864155435 -0.0001882384 0.873096759"></polygon>
                        </g>
                    </g>
                </g>
            </g>
        </g>
    </g>
</svg>